<svg height="512pt" viewBox="0 0 512 512.00113" width="512pt" xmlns="http://www.w3.org/2000/svg" xmlns:xlink="http://www.w3.org/1999/xlink"><linearGradient id="a" gradientUnits="userSpaceOnUse" x1=".001" x2="512.001" y1="256" y2="256"><stop offset="0" stop-color="#80d8ff"/><stop offset="1" stop-color="#ea80fc"/></linearGradient><path d="m506.53125 242.261719-21.929688-23.199219c-25.304687-26.761719-39.808593-61.773438-40.835937-98.589844l-.894531-31.910156c-.296875-10.605469-8.828125-19.136719-19.433594-19.433594l-31.910156-.894531c-36.816406-1.027344-71.828125-15.53125-98.589844-40.835937l-23.195312-21.929688c-7.710938-7.292969-19.769532-7.292969-27.480469 0l-23.195313 21.933594c-26.761718 25.300781-61.777344 39.804687-98.589844 40.835937l-31.910156.894531c-10.609375.296876-19.136718 8.824219-19.433594 19.429688l-.894531 31.914062c-1.03125 36.8125-15.535156 71.828126-40.835937 98.585938l-21.933594 23.199219c-7.289062 7.707031-7.289062 19.769531 0 27.480469l21.933594 23.195312c25.300781 26.761719 39.804687 61.773438 40.835937 98.589844l.894531 31.910156c.296876 10.605469 8.824219 19.136719 19.433594 19.433594l31.910156.894531c36.8125 1.03125 71.828126 15.53125 98.589844 40.835937l23.195313 21.933594c7.707031 7.289063 19.769531 7.289063 27.480469 0l23.195312-21.933594c26.761719-25.304687 61.773438-39.808593 98.589844-40.835937l31.910156-.894531c10.605469-.296875 19.136719-8.828125 19.433594-19.433594l.894531-31.910156c1.03125-36.816406 15.53125-71.828125 40.835937-98.589844l21.933594-23.195312c7.289063-7.710938 7.289063-19.773438-.003906-27.480469zm-50.996094 23.195312c-32.066406 33.917969-50.449218 78.292969-51.753906 124.949219l-.367188 13.007812-13.007812.363282c-46.660156 1.308594-91.035156 19.6875-124.949219 51.757812l-9.457031 8.941406-9.457031-8.941406c-33.914063-32.070312-78.289063-50.449218-124.949219-51.757812l-13.007812-.363282-.363282-13.007812c-1.308594-46.660156-19.6875-91.035156-51.757812-124.949219l-8.9375-9.457031 8.9375-9.457031c32.070312-33.914063 50.449218-78.289063 51.757812-124.949219l.363282-13.007812 13.007812-.363282c46.660156-1.308594 91.035156-19.6875 124.949219-51.757812l9.457031-8.941406 9.457031 8.941406c33.917969 32.070312 78.292969 50.449218 124.949219 51.757812l13.007812.363282.367188 13.007812c1.304688 46.660156 19.6875 91.035156 51.753906 124.949219l8.941406 9.457031zm-98.773437-59.992187-53.015625-15.628906-31.25-45.589844c-3.726563-5.441406-9.898438-8.695313-16.496094-8.695313s-12.769531 3.25-16.5 8.695313l-31.246094 45.589844-53.015625 15.628906c-6.328125 1.863281-11.328125 6.730468-13.367187 13.003906-2.039063 6.273438-.851563 13.148438 3.171875 18.375l33.703125 43.808594-1.519532 55.25c-.179687 6.59375 2.898438 12.851562 8.238282 16.730468 5.335937 3.878907 12.242187 4.875 18.457031 2.664063l52.078125-18.519531 52.078125 18.519531c6.203125 2.203125 13.109375 1.21875 18.457031-2.664063 5.335938-3.878906 8.417969-10.136718 8.238282-16.730468l-1.519532-55.25 33.703125-43.808594c4.023438-5.226562 5.207031-12.101562 3.171875-18.375-2.039062-6.273438-7.039062-11.140625-13.367187-13.003906zm-59.546875 56.429687c-2.804688 3.648438-4.269532 8.148438-4.144532 12.746094l.914063 33.191406-31.28125-11.125c-4.335937-1.542969-9.066406-1.542969-13.402344 0l-31.28125 11.125.910157-33.191406c.128906-4.597656-1.335938-9.097656-4.140626-12.746094l-20.246093-26.3125 31.847656-9.390625c4.410156-1.300781 8.238281-4.082031 10.839844-7.875l18.769531-27.386718 18.769531 27.386718c2.601563 3.792969 6.429688 6.574219 10.84375 7.875l31.847657 9.390625zm0 0" fill="url(#a)"/></svg>