<?xml version="1.0" encoding="iso-8859-1"?>
<!-- Generator: Adobe Illustrator 19.0.0, SVG Export Plug-In . SVG Version: 6.00 Build 0)  -->
<svg version="1.1" id="Capa_1" xmlns="http://www.w3.org/2000/svg" xmlns:xlink="http://www.w3.org/1999/xlink" x="0px" y="0px"
	 viewBox="0 0 512.001 512.001" style="enable-background:new 0 0 512.001 512.001;" xml:space="preserve">
<g>
	
		<linearGradient id="SVGID_1_" gradientUnits="userSpaceOnUse" x1="-14.8638" y1="636.7111" x2="-14.8638" y2="574.4291" gradientTransform="matrix(8.8815 0 0 -8.8815 386.1929 5660.6172)">
		<stop  offset="0" style="stop-color:#FC5C7D"/>
		<stop  offset="0.129" style="stop-color:#F35E85"/>
		<stop  offset="0.343" style="stop-color:#D9659B"/>
		<stop  offset="0.616" style="stop-color:#B070BF"/>
		<stop  offset="0.934" style="stop-color:#777FF0"/>
		<stop  offset="1" style="stop-color:#6A82FB"/>
	</linearGradient>
	<path style="fill:url(#SVGID_1_);" d="M53.396,338.483l123.71,123.71c3.464,3.464,9.095,3.464,12.558,0l60.332-60.332
		l15.925,15.924c3.464,3.464,9.095,3.464,12.558,0l167.798-167.807c39.984-40.517,39.549-105.787-0.968-145.772
		c-40.144-39.611-104.659-39.611-144.804,0L272.2,132.504l-28.305-28.296c-40.082-40.322-105.263-40.508-145.585-0.426
		C67.304,134.6,59.151,181.645,77.971,221.105c-36.849,14.388-55.056,55.918-40.668,92.758
		C40.908,323.091,46.388,331.475,53.396,338.483z M85.689,177.089c0-47.125,38.208-85.324,85.324-85.324
		c22.63,0,44.328,8.988,60.332,24.993l34.585,34.585c3.464,3.464,9.095,3.464,12.558,0l34.567-34.585
		c33.323-33.323,87.349-33.323,120.673,0s33.323,87.349,0,120.673L272.2,398.948l-9.645-9.645l50.82-50.82
		c28.119-27.87,28.323-73.255,0.462-101.373c-27.87-28.119-73.255-28.323-101.373-0.462c-0.151,0.151-0.311,0.302-0.462,0.462
		l-28.616,28.616l-28.616-28.616c-15.48-15.605-37.32-23.145-59.133-20.427C89.161,204.479,85.751,190.89,85.689,177.089z
		 M104.082,233.877c14.308-0.036,28.039,5.649,38.128,15.791l34.895,34.895c3.464,3.464,9.095,3.464,12.558,0l34.895-34.895
		c21.058-21.058,55.198-21.058,76.256,0c21.058,21.058,21.058,55.198,0,76.256L183.385,443.356L65.954,325.925
		c-21.058-21.058-21.058-55.198,0-76.256C76.061,239.552,89.783,233.877,104.082,233.877z"/>
	
		<linearGradient id="SVGID_2_" gradientUnits="userSpaceOnUse" x1="6.2402" y1="636.7111" x2="6.2402" y2="574.4291" gradientTransform="matrix(8.8815 0 0 -8.8815 386.1929 5660.6172)">
		<stop  offset="0" style="stop-color:#FC5C7D"/>
		<stop  offset="0.129" style="stop-color:#F35E85"/>
		<stop  offset="0.343" style="stop-color:#D9659B"/>
		<stop  offset="0.616" style="stop-color:#B070BF"/>
		<stop  offset="0.934" style="stop-color:#777FF0"/>
		<stop  offset="1" style="stop-color:#6A82FB"/>
	</linearGradient>
	<path style="fill:url(#SVGID_2_);" d="M371.228,38.484v17.763c67.934-0.009,123.009,55.056,123.018,122.982
		c0,32.631-12.958,63.929-36.041,87.003l-41.299,41.299l12.558,12.558l41.299-41.299c54.976-54.968,54.985-144.093,0.018-199.07
		C444.385,53.316,408.566,38.475,371.228,38.484z"/>
</g>
<linearGradient id="SVGID_3_" gradientUnits="userSpaceOnUse" x1="1.9361" y1="636.7101" x2="1.9361" y2="574.428" gradientTransform="matrix(8.8815 0 0 -8.8815 386.1929 5660.6172)">
	<stop  offset="0" style="stop-color:#FC5C7D"/>
	<stop  offset="0.129" style="stop-color:#F35E85"/>
	<stop  offset="0.343" style="stop-color:#D9659B"/>
	<stop  offset="0.616" style="stop-color:#B070BF"/>
	<stop  offset="0.934" style="stop-color:#777FF0"/>
	<stop  offset="1" style="stop-color:#6A82FB"/>
</linearGradient>
<polygon style="fill:url(#SVGID_3_);" points="390.253,334.175 403.966,320.471 416.524,333.03 402.811,346.734 "/>
<g>
	
		<linearGradient id="SVGID_4_" gradientUnits="userSpaceOnUse" x1="-36.3054" y1="636.7111" x2="-36.3054" y2="574.4291" gradientTransform="matrix(8.8815 0 0 -8.8815 386.1929 5660.6172)">
		<stop  offset="0" style="stop-color:#FC5C7D"/>
		<stop  offset="0.129" style="stop-color:#F35E85"/>
		<stop  offset="0.343" style="stop-color:#D9659B"/>
		<stop  offset="0.616" style="stop-color:#B070BF"/>
		<stop  offset="0.934" style="stop-color:#777FF0"/>
		<stop  offset="1" style="stop-color:#6A82FB"/>
	</linearGradient>
	<path style="fill:url(#SVGID_4_);" d="M0,315.915c4.752,19.442,14.752,37.213,28.9,51.371l86.035,86.026l12.558-12.558
		l-86.026-86.035c-11.839-11.857-20.197-26.733-24.167-43.013L0,315.915z"/>
	
		<linearGradient id="SVGID_5_" gradientUnits="userSpaceOnUse" x1="-28.1969" y1="636.7111" x2="-28.1969" y2="574.4291" gradientTransform="matrix(8.8815 0 0 -8.8815 386.1929 5660.6172)">
		<stop  offset="0" style="stop-color:#FC5C7D"/>
		<stop  offset="0.129" style="stop-color:#F35E85"/>
		<stop  offset="0.343" style="stop-color:#D9659B"/>
		<stop  offset="0.616" style="stop-color:#B070BF"/>
		<stop  offset="0.934" style="stop-color:#777FF0"/>
		<stop  offset="1" style="stop-color:#6A82FB"/>
	</linearGradient>
	<polygon style="fill:url(#SVGID_5_);" points="123.817,462.193 136.375,449.635 147.708,460.959 135.15,473.517 	"/>
	
		<linearGradient id="SVGID_6_" gradientUnits="userSpaceOnUse" x1="-17.5509" y1="636.7111" x2="-17.5509" y2="574.4291" gradientTransform="matrix(8.8815 0 0 -8.8815 386.1929 5660.6172)">
		<stop  offset="0" style="stop-color:#FC5C7D"/>
		<stop  offset="0.129" style="stop-color:#F35E85"/>
		<stop  offset="0.343" style="stop-color:#D9659B"/>
		<stop  offset="0.616" style="stop-color:#B070BF"/>
		<stop  offset="0.934" style="stop-color:#777FF0"/>
		<stop  offset="1" style="stop-color:#6A82FB"/>
	</linearGradient>
	<polygon style="fill:url(#SVGID_6_);" points="217.676,355.766 230.395,343.048 242.953,355.606 230.235,368.325 	"/>
	
		<linearGradient id="SVGID_7_" gradientUnits="userSpaceOnUse" x1="-13.1884" y1="636.7111" x2="-13.1884" y2="574.4291" gradientTransform="matrix(8.8815 0 0 -8.8815 386.1929 5660.6172)">
		<stop  offset="0" style="stop-color:#FC5C7D"/>
		<stop  offset="0.129" style="stop-color:#F35E85"/>
		<stop  offset="0.343" style="stop-color:#D9659B"/>
		<stop  offset="0.616" style="stop-color:#B070BF"/>
		<stop  offset="0.934" style="stop-color:#777FF0"/>
		<stop  offset="1" style="stop-color:#6A82FB"/>
	</linearGradient>
	<path style="fill:url(#SVGID_7_);" d="M288.888,309.68c12.514-12.514,13.331-32.533,1.883-46.024l-13.535,11.493
		c2.505,2.922,3.863,6.643,3.846,10.489c-0.009,4.308-1.714,8.429-4.752,11.484l-37.054,37.054l12.558,12.558L288.888,309.68z"/>
	
		<linearGradient id="SVGID_8_" gradientUnits="userSpaceOnUse" x1="-25.5494" y1="636.7111" x2="-25.5494" y2="574.4291" gradientTransform="matrix(8.8815 0 0 -8.8815 386.1929 5660.6172)">
		<stop  offset="0" style="stop-color:#FC5C7D"/>
		<stop  offset="0.129" style="stop-color:#F35E85"/>
		<stop  offset="0.343" style="stop-color:#D9659B"/>
		<stop  offset="0.616" style="stop-color:#B070BF"/>
		<stop  offset="0.934" style="stop-color:#777FF0"/>
		<stop  offset="1" style="stop-color:#6A82FB"/>
	</linearGradient>
	<path style="fill:url(#SVGID_8_);" d="M168.855,127.299c12.629,0.036,24.735,5.045,33.687,13.953l12.558-12.558
		c-25.543-25.543-66.958-25.543-92.492,0c-12.265,12.265-19.157,28.9-19.157,46.246h17.763
		C121.241,148.641,142.557,127.326,168.855,127.299z"/>
</g>
<g>
</g>
<g>
</g>
<g>
</g>
<g>
</g>
<g>
</g>
<g>
</g>
<g>
</g>
<g>
</g>
<g>
</g>
<g>
</g>
<g>
</g>
<g>
</g>
<g>
</g>
<g>
</g>
<g>
</g>
</svg>
